<?xml version="1.0" encoding="UTF-8" standalone="no"?>
<!DOCTYPE svg PUBLIC "-//W3C//DTD SVG 1.1//EN"
 "http://www.w3.org/Graphics/SVG/1.1/DTD/svg11.dtd">
<!-- Generated by graphviz version 3.0.0 (20220226.1711)
 -->
<!-- Pages: 1 -->
<svg width="129pt" height="386pt"
 viewBox="0.00 0.00 129.00 386.00" xmlns="http://www.w3.org/2000/svg" xmlns:xlink="http://www.w3.org/1999/xlink">
<g id="graph0" class="graph" transform="scale(1 1) rotate(0) translate(4 382)">
<polygon fill="white" stroke="transparent" points="-4,4 -4,-382 125,-382 125,4 -4,4"/>
<!-- fake -->
<g id="node1" class="node">
<title>fake</title>
</g>
<!-- A -->
<g id="node5" class="node">
<title>A</title>
<ellipse fill="none" stroke="black" cx="27" cy="-287" rx="27" ry="18"/>
<text text-anchor="middle" x="27" y="-283.3" font-family="Times New Roman,serif" font-size="14.00">A</text>
</g>
<!-- fake&#45;&gt;A -->
<g id="edge1" class="edge">
<title>fake&#45;&gt;A</title>
<path fill="none" stroke="black" stroke-width="2" d="M27,-341.81C27,-333.79 27,-324.05 27,-315.07"/>
<polygon fill="black" stroke="black" stroke-width="2" points="30.5,-315.03 27,-305.03 23.5,-315.03 30.5,-315.03"/>
</g>
<!-- B -->
<g id="node2" class="node">
<title>B</title>
<ellipse fill="none" stroke="black" cx="69" cy="-200" rx="27" ry="18"/>
<text text-anchor="middle" x="69" y="-196.3" font-family="Times New Roman,serif" font-size="14.00">B</text>
</g>
<!-- B&#45;&gt;B -->
<g id="edge2" class="edge">
<title>B&#45;&gt;B</title>
<path fill="none" stroke="black" d="M93.53,-207.75C104.51,-208.49 114,-205.91 114,-200 114,-196.03 109.72,-193.56 103.57,-192.59"/>
<polygon fill="black" stroke="black" points="103.65,-189.09 93.53,-192.25 103.41,-196.09 103.65,-189.09"/>
<text text-anchor="middle" x="117.5" y="-196.3" font-family="Times New Roman,serif" font-size="14.00">a</text>
</g>
<!-- C -->
<g id="node3" class="node">
<title>C</title>
<ellipse fill="none" stroke="black" cx="60" cy="-113" rx="27" ry="18"/>
<text text-anchor="middle" x="60" y="-109.3" font-family="Times New Roman,serif" font-size="14.00">C</text>
</g>
<!-- B&#45;&gt;C -->
<g id="edge9" class="edge">
<title>B&#45;&gt;C</title>
<path fill="none" stroke="black" d="M58.88,-183.25C55.71,-177.43 52.61,-170.64 51,-164 49.17,-156.46 49.67,-148.19 51.1,-140.59"/>
<polygon fill="black" stroke="black" points="54.53,-141.32 53.51,-130.77 47.73,-139.65 54.53,-141.32"/>
<text text-anchor="middle" x="55" y="-152.8" font-family="Times New Roman,serif" font-size="14.00">b</text>
</g>
<!-- C&#45;&gt;B -->
<g id="edge8" class="edge">
<title>C&#45;&gt;B</title>
<path fill="none" stroke="black" d="M61.82,-131.18C63.05,-142.81 64.7,-158.42 66.11,-171.73"/>
<polygon fill="black" stroke="black" points="62.65,-172.22 67.18,-181.8 69.61,-171.49 62.65,-172.22"/>
<text text-anchor="middle" x="68.5" y="-152.8" font-family="Times New Roman,serif" font-size="14.00">a</text>
</g>
<!-- D -->
<g id="node4" class="node">
<title>D</title>
<ellipse fill="none" stroke="black" cx="60" cy="-22" rx="18" ry="18"/>
<ellipse fill="none" stroke="black" cx="60" cy="-22" rx="22" ry="22"/>
<text text-anchor="middle" x="60" y="-18.3" font-family="Times New Roman,serif" font-size="14.00">D</text>
</g>
<!-- C&#45;&gt;D -->
<g id="edge5" class="edge">
<title>C&#45;&gt;D</title>
<path fill="none" stroke="black" d="M60,-94.84C60,-83.44 60,-68.13 60,-54.58"/>
<polygon fill="black" stroke="black" points="63.5,-54.19 60,-44.19 56.5,-54.19 63.5,-54.19"/>
<text text-anchor="middle" x="64" y="-65.8" font-family="Times New Roman,serif" font-size="14.00">b</text>
</g>
<!-- D&#45;&gt;B -->
<g id="edge6" class="edge">
<title>D&#45;&gt;B</title>
<path fill="none" stroke="black" d="M71.81,-40.75C80.41,-54.8 91.34,-75.28 96,-95 102.36,-121.96 92.26,-152.63 82.65,-173.64"/>
<polygon fill="black" stroke="black" points="79.41,-172.32 78.19,-182.84 85.71,-175.37 79.41,-172.32"/>
<text text-anchor="middle" x="100.5" y="-109.3" font-family="Times New Roman,serif" font-size="14.00">a</text>
</g>
<!-- D&#45;&gt;A -->
<g id="edge3" class="edge">
<title>D&#45;&gt;A</title>
<path fill="none" stroke="black" d="M48.19,-40.75C39.59,-54.8 28.66,-75.28 24,-95 10.51,-152.14 17.11,-221.59 22.47,-259"/>
<polygon fill="black" stroke="black" points="19.04,-259.73 24,-269.1 25.96,-258.68 19.04,-259.73"/>
<text text-anchor="middle" x="20" y="-152.8" font-family="Times New Roman,serif" font-size="14.00">b</text>
</g>
<!-- A&#45;&gt;B -->
<g id="edge7" class="edge">
<title>A&#45;&gt;B</title>
<path fill="none" stroke="black" d="M35.1,-269.61C41.14,-257.38 49.51,-240.44 56.42,-226.46"/>
<polygon fill="black" stroke="black" points="59.63,-227.85 60.93,-217.34 53.36,-224.75 59.63,-227.85"/>
<text text-anchor="middle" x="53.5" y="-239.8" font-family="Times New Roman,serif" font-size="14.00">a</text>
</g>
<!-- A&#45;&gt;A -->
<g id="edge4" class="edge">
<title>A&#45;&gt;A</title>
<path fill="none" stroke="black" d="M52.44,-293.69C63.03,-294.15 72,-291.92 72,-287 72,-283.77 68.14,-281.7 62.49,-280.79"/>
<polygon fill="black" stroke="black" points="62.6,-277.29 52.44,-280.31 62.27,-284.28 62.6,-277.29"/>
<text text-anchor="middle" x="76" y="-283.3" font-family="Times New Roman,serif" font-size="14.00">b</text>
</g>
</g>
</svg>
